<svg width="1512" height="237" viewBox="0 0 1512 237" fill="none" xmlns="http://www.w3.org/2000/svg">
<path d="M283.022 58.2581C123.664 41.7496 -21.5192 83.3373 -121.82 109.224L-127.998 650.994L1859.89 736.161L1575.01 137.44C1539.87 121.637 1411.98 74.2982 1300.27 61.7274C1053.94 34.0088 940.319 238.558 693.931 211.292C520.328 192.081 456.789 76.2593 283.022 58.2581Z" fill="#003049" fill-opacity="0.05" stroke="#003049" stroke-opacity="0.36" stroke-width="0.950641"/>
<path d="M76.4527 190.97C24.5238 174.016 0.284829 154.519 -48.5201 131.163L-27.0964 579.151L1525.68 514.02L1544.51 74.6443C1410.55 46.1809 1332.51 177.215 1182.98 195.929C952.439 224.781 830.173 84.6479 597.192 88.5109C388.675 91.9684 273.072 255.162 76.4527 190.97Z" fill="#003049" fill-opacity="0.05" stroke="#003049" stroke-opacity="0.36" stroke-width="0.950641"/>
</svg>
