<svg width="88" height="88" viewBox="0 0 88 88" fill="none" xmlns="http://www.w3.org/2000/svg">
<circle cx="44" cy="44" r="44" fill="#F1FDEB"/>
<g clip-path="url(#clip0_29_3582)">
<path d="M51.063 67.7313H22.6237C20.7591 67.7313 19.6345 65.6668 20.6458 64.1002C24.6715 57.8644 29.4838 54.5151 34.4178 54.5151H34.9468C39.8808 54.5151 44.6931 57.8644 48.7188 64.1002L51.063 67.7313Z" fill="#ADDE98"/>
<path d="M30.4736 38.447C30.088 38.447 29.7756 38.7596 29.7756 39.1451V40.6652C29.7756 41.0507 30.088 41.3632 30.4736 41.3632C30.8592 41.3632 31.1717 41.0507 31.1717 40.6652V39.1451C31.1717 38.7596 30.8591 38.447 30.4736 38.447Z" fill="#F3B744"/>
<path d="M58.5187 24.1736C58.1331 24.1736 57.8207 24.4861 57.8207 24.8716V26.3918C57.8207 26.7773 58.1331 27.0898 58.5187 27.0898C58.9043 27.0898 59.2168 26.7773 59.2168 26.3918V24.8716C59.2168 24.4861 58.9043 24.1736 58.5187 24.1736Z" fill="#F3B744"/>
<path d="M41.5397 52.6196H36.236C31.1035 52.6196 26.9279 48.4442 26.9279 43.3117C26.9279 41.6412 28.2822 40.2869 29.9528 40.2869C31.6233 40.2869 32.9776 41.6412 32.9776 43.3117C32.9776 45.1084 34.4393 46.57 36.236 46.57H41.5397C43.2102 46.57 44.5645 47.9243 44.5645 49.5948C44.5645 51.2653 43.2103 52.6196 41.5397 52.6196Z" fill="#82C167"/>
<path d="M44.5647 49.595C44.5647 51.2656 43.2096 52.6198 41.5399 52.6198H36.2357C35.2854 52.6198 34.3668 52.4765 33.5031 52.2094V47.6138C33.5031 47.0374 33.0359 46.5701 32.4595 46.5701C30.6632 46.5701 29.2566 45.1009 29.2525 43.3046C29.2503 42.3396 28.7966 41.4806 28.09 40.9281C28.6029 40.527 29.2497 40.2869 29.9524 40.2869C31.6231 40.2869 32.9772 41.6411 32.9772 43.3117C32.9772 43.9651 33.1708 44.5738 33.5031 45.0838C34.0848 45.9782 35.0928 46.5701 36.2357 46.5701H41.5399C43.2096 46.5701 44.5647 47.9243 44.5647 49.595Z" fill="#4D8E31"/>
<path d="M52.5665 44.6632H47.2628C45.5923 44.6632 44.238 43.3089 44.238 41.6384C44.238 39.9678 45.5923 38.6135 47.2628 38.6135H52.5665C54.3632 38.6135 55.8249 37.1518 55.8249 35.3552V28.7951C55.8249 27.1246 57.1792 25.7703 58.8497 25.7703C60.5203 25.7703 61.8746 27.1246 61.8746 28.7951V35.3552C61.8746 40.4876 57.6989 44.6632 52.5665 44.6632Z" fill="#62A446"/>
<path d="M58.8489 25.7703C58.1463 25.7703 57.5001 26.0106 56.9866 26.4125C57.6939 26.9661 58.149 27.8272 58.149 28.7951V35.3552C58.149 40.4876 53.9735 44.6632 48.841 44.6632H52.5658C57.6982 44.6632 61.8738 40.4876 61.8738 35.3552V28.7951C61.8738 27.1245 60.5195 25.7703 58.8489 25.7703Z" fill="#387E1B"/>
<path d="M43.999 20.2664C43.6134 20.2664 43.301 20.5789 43.301 20.9644V22.4845C43.301 22.87 43.6134 23.1826 43.999 23.1826C44.3846 23.1826 44.6971 22.87 44.6971 22.4845V20.9644C44.6971 20.5789 44.3846 20.2664 43.999 20.2664Z" fill="#F3B744"/>
<path d="M52.1687 62.1496H35.8303V30.2979C35.8303 25.7861 39.4877 22.1287 43.9995 22.1287C48.5112 22.1287 52.1687 25.7861 52.1687 30.2979V62.1496Z" fill="#82C167"/>
<path d="M35.8546 25.0968C35.5819 25.3694 35.5819 25.8114 35.8546 26.084L36.9294 27.1589C37.2021 27.4315 37.644 27.4315 37.9167 27.1589C38.1894 26.8863 38.1893 26.4443 37.9167 26.1717L36.8418 25.0968C36.5691 24.8242 36.1272 24.8242 35.8546 25.0968Z" fill="#F3B744"/>
<path d="M25.96 40.9699C25.6874 41.2425 25.6874 41.6845 25.96 41.9571L27.0349 43.032C27.3075 43.3046 27.7494 43.3046 28.0221 43.032C28.2948 42.7594 28.2947 42.3174 28.0221 42.0448L26.9472 40.9699C26.6746 40.6973 26.2327 40.6972 25.96 40.9699Z" fill="#F3B744"/>
<path d="M60.8304 29.1328C60.5578 28.8602 60.5578 28.4182 60.8304 28.1456L61.9053 27.0707C62.1779 26.7981 62.6198 26.7981 62.8925 27.0707C63.1652 27.3433 63.1651 27.7853 62.8925 28.0579L61.8176 29.1328C61.545 29.4054 61.103 29.4055 60.8304 29.1328Z" fill="#F3B744"/>
<path d="M27.6353 50.4773C27.3627 50.2046 27.3627 49.7626 27.6353 49.49L28.7102 48.4151C28.9828 48.1425 29.4247 48.1425 29.6974 48.4151C29.97 48.6878 29.97 49.1298 29.6974 49.4024L28.6225 50.4773C28.3499 50.7499 27.908 50.7499 27.6353 50.4773Z" fill="#F3B744"/>
<path d="M52.0168 25.0968C52.2894 25.3694 52.2894 25.8114 52.0168 26.084L50.9419 27.1589C50.6693 27.4315 50.2274 27.4315 49.9547 27.1589C49.682 26.8863 49.682 26.4443 49.9547 26.1717L51.0295 25.0968C51.3021 24.8242 51.7441 24.8242 52.0168 25.0968Z" fill="#F3B744"/>
<path d="M34.5432 33.5259C34.5432 33.9115 34.8557 34.224 35.2412 34.224H36.7614C37.1469 34.224 37.4594 33.9115 37.4594 33.5259C37.4594 33.1403 37.1469 32.8279 36.7614 32.8279H35.2412C34.8557 32.8279 34.5432 33.1403 34.5432 33.5259Z" fill="#F3B744"/>
<path d="M50.8772 33.5259C50.8772 33.9115 51.1897 34.224 51.5752 34.224H53.0953C53.4808 34.224 53.7934 33.9115 53.7934 33.5259C53.7934 33.1403 53.4808 32.8279 53.0953 32.8279H51.5752C51.1897 32.8279 50.8772 33.1403 50.8772 33.5259Z" fill="#82C167"/>
<path d="M50.8772 46.2779C50.8772 46.6635 51.1897 46.9759 51.5752 46.9759H53.0953C53.4808 46.9759 53.7934 46.6635 53.7934 46.2779C53.7934 45.8923 53.4808 45.5798 53.0953 45.5798H51.5752C51.1897 45.5798 50.8772 45.8923 50.8772 46.2779Z" fill="#82C167"/>
<path d="M60.3079 33.9927C60.3079 34.3783 60.6204 34.6908 61.0059 34.6908H62.5261C62.9116 34.6908 63.2241 34.3783 63.2241 33.9927C63.2241 33.6071 62.9116 33.2947 62.5261 33.2947H61.0059C60.6204 33.2947 60.3079 33.6071 60.3079 33.9927Z" fill="#82C167"/>
<path d="M50.8772 56.19C50.8772 56.5756 51.1897 56.888 51.5752 56.888H53.0953C53.4808 56.888 53.7934 56.5756 53.7934 56.19C53.7934 55.8044 53.4808 55.4919 53.0953 55.4919H51.5752C51.1897 55.4919 50.8772 55.8044 50.8772 56.19Z" fill="#82C167"/>
<path d="M34.5432 44.6011C34.5432 44.9867 34.8557 45.2992 35.2412 45.2992H36.7614C37.1469 45.2992 37.4594 44.9867 37.4594 44.6011C37.4594 44.2155 37.1469 43.9031 36.7614 43.9031H35.2412C34.8557 43.9031 34.5432 44.2155 34.5432 44.6011Z" fill="#F3B744"/>
<path d="M43.9994 22.126C43.3587 22.126 42.7353 22.2 42.1371 22.3394C45.7514 23.1822 48.4439 26.4241 48.4439 30.2952V62.1469H52.1686V30.2952C52.1686 25.7834 48.5112 22.126 43.9994 22.126Z" fill="#387E1B"/>
<path d="M43.9994 27.384C43.6138 27.384 43.3014 27.6966 43.3014 28.0821V41.6706C43.3014 42.0561 43.6138 42.3686 43.9994 42.3686C44.385 42.3686 44.6974 42.0561 44.6974 41.6706V28.0821C44.6974 27.6966 44.385 27.384 43.9994 27.384Z" fill="#62A446"/>
<path d="M43.9995 48.0459C43.6139 48.0459 43.3015 48.3584 43.3015 48.7439V62.1463H44.6975V48.7439C44.6975 48.3584 44.3851 48.0459 43.9995 48.0459Z" fill="#62A446"/>
<path d="M39.9028 25.4783C39.5173 25.4783 39.2048 25.7908 39.2048 26.1763V62.1472H40.6009V26.1763C40.6009 25.7908 40.2883 25.4783 39.9028 25.4783Z" fill="#62A446"/>
<path d="M37.1494 39.2508C37.1494 39.6364 37.4619 39.9488 37.8474 39.9488H39.3676C39.7531 39.9488 40.0656 39.6364 40.0656 39.2508C40.0656 38.8652 39.7531 38.5527 39.3676 38.5527H37.8474C37.4619 38.5527 37.1494 38.8652 37.1494 39.2508Z" fill="#F3B744"/>
<path d="M37.1496 55.0728C37.1496 55.4584 37.4621 55.7708 37.8477 55.7708H39.3678C39.7533 55.7708 40.0658 55.4584 40.0658 55.0728C40.0658 54.6872 39.7533 54.3748 39.3678 54.3748H37.8477C37.4621 54.3748 37.1496 54.6872 37.1496 55.0728Z" fill="#F3B744"/>
<path d="M46.9216 51.1167C46.9216 51.5023 47.2342 51.8148 47.6197 51.8148H49.1398C49.5253 51.8148 49.8379 51.5023 49.8379 51.1167C49.8379 50.7311 49.5253 50.4187 49.1398 50.4187H47.6197C47.2342 50.4187 46.9216 50.7311 46.9216 51.1167Z" fill="#82C167"/>
<path d="M66.5268 67.7315H26.6191C25.4461 67.7315 24.9663 66.2244 25.9233 65.5462C31.9594 61.2688 39.1749 58.9714 46.5729 58.9714C53.9709 58.9714 61.1864 61.2688 67.2225 65.5462C68.1796 66.2244 67.6998 67.7315 66.5268 67.7315Z" fill="#D6F1CA"/>
</g>
<defs>
<clipPath id="clip0_29_3582">
<rect width="47.4667" height="47.4667" fill="white" transform="translate(20.2666 20.2661)"/>
</clipPath>
</defs>
</svg>
